<svg version="1.2" baseProfile="tiny-ps" xmlns="http://www.w3.org/2000/svg" viewBox="0 0 21 20" width="21" height="20">
	<title>Search Icon</title>
	<style>
		tspan { white-space:pre }
		.shp0 { fill: #00c6bf } 
	</style>
	<path id="Search Icon" class="shp0" d="M19.58 20.05L14.73 15.2C13.18 16.58 11.15 17.43 8.91 17.43C4.08 17.43 0.16 13.51 0.16 8.68C0.16 3.85 4.08 -0.07 8.91 -0.07C13.74 -0.07 17.66 3.85 17.66 8.68C17.66 10.55 17.06 12.28 16.06 13.71L20.99 18.64L19.58 20.05ZM2.16 8.68C2.17 4.95 5.18 1.93 8.91 1.93C12.64 1.93 15.65 4.95 15.66 8.68C15.65 12.41 12.64 15.42 8.91 15.43C5.18 15.42 2.17 12.41 2.16 8.68Z" />
</svg>